<?xml version="1.0" encoding="iso-8859-1"?>
<!-- Uploaded to: SVG Repo, www.svgrepo.com, Generator: SVG Repo Mixer Tools -->
<svg height="800px" width="800px" version="1.1" id="Layer_1" xmlns="http://www.w3.org/2000/svg" xmlns:xlink="http://www.w3.org/1999/xlink" 
	 viewBox="0 0 503.467 503.467" xml:space="preserve">
<g transform="translate(1 1)">
	<path style="fill:#FF7474;" d="M498.2,37.4v187.733c0,18.773-15.36,34.133-34.133,34.133h-34.133V191h34.133v-68.267H37.4V191
		h34.133v68.267H37.4c-18.773,0-34.133-15.36-34.133-34.133V37.4c0-18.773,15.36-34.133,34.133-34.133h426.667
		C482.84,3.267,498.2,18.627,498.2,37.4"/>
	<path style="fill:#E4F2DE;" d="M429.933,259.267v204.8c0,18.773-15.36,34.133-34.133,34.133H105.667
		c-18.773,0-34.133-15.36-34.133-34.133v-204.8V191v-34.133h34.133v256c28.16,0,51.2,23.04,51.2,51.2H344.6
		c0-28.16,23.04-51.2,51.2-51.2v-256h34.133V191V259.267z M323.267,156.867C336.92,173.08,344.6,193.56,344.6,216.6
		c0,52.053-41.813,93.867-93.867,93.867s-93.867-41.813-93.867-93.867c0-23.04,7.68-43.52,21.333-59.733H323.267z"/>
	<path style="fill:#50DD8E;" d="M395.8,156.867v256c-28.16,0-51.2,23.04-51.2,51.2H156.867c0-28.16-23.04-51.2-51.2-51.2v-256H178.2
		c-13.653,16.213-21.333,36.693-21.333,59.733c0,52.053,41.813,93.867,93.867,93.867S344.6,268.653,344.6,216.6
		c0-23.04-7.68-43.52-21.333-59.733H395.8z"/>
	<polygon style="fill:#AE938D;" points="464.067,122.733 464.067,191 429.933,191 429.933,156.867 395.8,156.867 323.267,156.867 
		178.2,156.867 105.667,156.867 71.533,156.867 71.533,191 37.4,191 37.4,122.733 	"/>
	<path style="fill:#50DD8E;" d="M438.467,54.467c5.12,0,8.533,4.267,8.533,8.533s-3.413,8.533-8.533,8.533
		c-5.12,0-8.533-4.267-8.533-8.533S433.347,54.467,438.467,54.467"/>
</g>
<path style="fill:#51565F;" d="M396.8,503.467H106.667c-21.333,0-38.4-17.067-38.4-38.4v-307.2c0-2.56,1.707-4.267,4.267-4.267
	H396.8c2.56,0,4.267,1.707,4.267,4.267c0,2.56-1.707,4.267-4.267,4.267h-320v302.933c0,16.213,13.653,29.867,29.867,29.867H396.8
	c16.213,0,29.867-13.653,29.867-29.867v-307.2c0-2.56,1.707-4.267,4.267-4.267s4.267,1.707,4.267,4.267v307.2
	C435.2,486.4,418.133,503.467,396.8,503.467z M345.6,469.333H157.867c-2.56,0-4.267-1.707-4.267-4.267
	c0-25.6-21.333-46.933-46.933-46.933c-2.56,0-4.267-1.707-4.267-4.267V192c0-2.56,1.707-4.267,4.267-4.267s4.267,1.707,4.267,4.267
	v217.6c27.307,1.707,48.64,23.893,51.2,51.2h179.2c1.707-27.307,23.893-48.64,51.2-51.2V192c0-2.56,1.707-4.267,4.267-4.267
	s4.267,1.707,4.267,4.267v221.867c0,2.56-1.707,4.267-4.267,4.267c-25.6,0-46.933,21.333-46.933,46.933
	C349.867,467.627,348.16,469.333,345.6,469.333z M251.733,315.733c-53.76,0-98.133-44.373-98.133-98.133
	c0-9.387,0.853-17.92,3.413-26.453c0.853-2.56,3.413-3.413,5.12-2.56c2.56,0.853,3.413,3.413,2.56,5.12
	c-2.56,7.68-3.413,16.213-3.413,24.747c0,49.493,40.107,89.6,89.6,89.6s89.6-40.107,89.6-89.6c0-8.533-0.853-16.213-3.413-24.747
	c-0.853-2.56,0.853-4.267,2.56-5.12c2.56-0.853,4.267,0.853,5.12,2.56c2.56,8.533,3.413,17.92,3.413,26.453
	C349.867,271.36,305.493,315.733,251.733,315.733z M465.067,264.533c-2.56,0-4.267-1.707-4.267-4.267
	c0-2.56,1.707-4.267,4.267-4.267c16.213,0,29.867-13.653,29.867-29.867V38.4c0-16.213-13.653-29.867-29.867-29.867H38.4
	C22.187,8.533,8.533,22.187,8.533,38.4v187.733C8.533,242.347,22.187,256,38.4,256c2.56,0,4.267,1.707,4.267,4.267
	c0,2.56-1.707,4.267-4.267,4.267c-21.333,0-38.4-17.067-38.4-38.4V38.4C0,17.067,17.067,0,38.4,0h426.667
	c21.333,0,38.4,17.067,38.4,38.4v187.733C503.467,247.467,486.4,264.533,465.067,264.533z M277.333,247.467
	c-2.56,0-4.267-1.707-4.267-4.267s1.707-4.267,4.267-4.267c11.947,0,21.333-9.387,21.333-21.333
	c0-11.947-9.387-21.333-21.333-21.333S256,205.653,256,217.6c0,16.213-13.653,29.867-29.867,29.867
	c-15.36,0-27.307-11.093-29.867-25.6H192c-2.56,0-4.267-1.707-4.267-4.267c0-2.56,1.707-4.267,4.267-4.267h4.267
	c1.707-14.507,14.507-25.6,29.867-25.6c2.56,0,4.267,1.707,4.267,4.267c0,2.56-1.707,4.267-4.267,4.267
	c-11.947,0-21.333,9.387-21.333,21.333c0,11.947,9.387,21.333,21.333,21.333s21.333-9.387,21.333-21.333
	c0-16.213,13.653-29.867,29.867-29.867c15.36,0,27.307,11.093,29.867,25.6h4.267c2.56,0,4.267,1.707,4.267,4.267
	c0,2.56-1.707,4.267-4.267,4.267H307.2C304.64,236.373,292.693,247.467,277.333,247.467z M465.067,196.267
	c-2.56,0-4.267-1.707-4.267-4.267v-64H42.667v64c0,2.56-1.707,4.267-4.267,4.267s-4.267-1.707-4.267-4.267v-68.267
	c0-2.56,1.707-4.267,4.267-4.267h426.667c2.56,0,4.267,1.707,4.267,4.267V192C469.333,194.56,467.627,196.267,465.067,196.267z
	 M439.467,76.8c-6.827,0-12.8-5.973-12.8-12.8c0-6.827,5.973-12.8,12.8-12.8c6.827,0,12.8,5.973,12.8,12.8
	C452.267,70.827,446.293,76.8,439.467,76.8z M439.467,59.733c-2.56,0-4.267,1.707-4.267,4.267c0,2.56,1.707,4.267,4.267,4.267
	c2.56,0,4.267-1.707,4.267-4.267C443.733,61.44,442.027,59.733,439.467,59.733z M379.733,68.267H294.4
	c-2.56,0-4.267-1.707-4.267-4.267c0-2.56,1.707-4.267,4.267-4.267h85.333c2.56,0,4.267,1.707,4.267,4.267
	C384,66.56,382.293,68.267,379.733,68.267z"/>
</svg>